<svg width="559" height="563" viewBox="0 0 559 563" fill="none" xmlns="http://www.w3.org/2000/svg">
    <path fill-rule="evenodd" clip-rule="evenodd" d="M407.574 337.168C400.626 333.691 366.466 316.884 360.097 314.563C353.729 312.244 349.097 311.087 344.465 318.04C339.833 324.995 326.517 340.647 322.463 345.284C318.411 349.92 314.358 350.503 307.41 347.023C300.462 343.546 278.074 336.21 251.535 312.536C230.881 294.112 216.935 271.36 212.883 264.404C208.83 257.448 212.45 253.688 215.929 250.224C219.055 247.111 222.878 242.108 226.351 238.051C229.826 233.995 230.983 231.095 233.299 226.46C235.615 221.822 234.458 217.766 232.719 214.288C230.983 210.811 217.087 176.61 211.298 162.696C205.658 149.15 199.93 150.984 195.665 150.77C191.617 150.568 186.979 150.526 182.349 150.526C177.717 150.526 170.189 152.264 163.819 159.219C157.451 166.175 139.502 182.986 139.502 217.183C139.502 251.384 164.398 284.422 167.873 289.059C171.347 293.698 216.866 363.876 286.567 393.972C303.143 401.132 316.086 405.407 326.177 408.608C342.821 413.898 357.967 413.151 369.939 411.362C383.289 409.368 411.047 394.555 416.838 378.326C422.627 362.092 422.627 348.182 420.89 345.284C419.154 342.386 414.522 340.647 407.574 337.168ZM280.798 510.268H280.705C239.231 510.252 198.554 499.11 163.069 478.052L154.629 473.043L67.154 495.99L90.502 410.702L85.0073 401.956C61.8713 365.159 49.6513 322.628 49.67 278.956C49.7207 151.526 153.403 47.8509 280.89 47.8509C342.623 47.8723 400.653 71.9443 444.291 115.632C487.927 159.318 511.945 217.387 511.921 279.143C511.869 406.584 408.187 510.268 280.798 510.268ZM477.502 82.4363C425.002 29.875 355.183 0.91628 280.795 0.885613C127.525 0.885613 2.78069 125.622 2.71936 278.939C2.69936 327.95 15.5033 375.786 39.838 417.958L0.388672 562.052L147.799 523.384C188.415 545.538 234.145 557.215 280.685 557.23H280.798H280.799C434.054 557.23 558.809 432.482 558.871 279.162C558.899 204.86 530.002 134.996 477.502 82.4363" fill="#455A64"/>
</svg>
